<?xml version="1.0" encoding="UTF-8"?>
<svg xmlns="http://www.w3.org/2000/svg" width="66.71mm" height="48.46mm" viewBox="184.97 60.22 66.71 48.46">
  <path d="M 189.970 89.050 L 189.970 82.950 L 189.975 82.895 L 189.991 82.843 L 190.017 82.794 L 190.052 82.752 L 190.094 82.717 L 190.143 82.691 L 190.195 82.675 L 190.250 82.670 L 195.950 82.670 L 196.005 82.675 L 196.057 82.691 L 196.106 82.717 L 196.148 82.752 L 196.183 82.794 L 196.209 82.843 L 196.225 82.895 L 196.230 82.950 L 196.230 89.050 L 196.225 89.105 L 196.209 89.157 L 196.183 89.206 L 196.148 89.248 L 196.106 89.283 L 196.057 89.309 L 196.005 89.325 L 195.950 89.330 L 190.250 89.330 L 190.195 89.325 L 190.143 89.309 L 190.094 89.283 L 190.052 89.248 L 190.017 89.206 L 189.991 89.157 L 189.975 89.105 L 189.970 89.050 L 190.050 89.050 L 190.050 82.950 L 190.054 82.911 L 190.065 82.873 L 190.084 82.839 L 190.109 82.809 L 190.139 82.784 L 190.173 82.765 L 190.211 82.754 L 190.250 82.750 L 195.950 82.750 L 195.989 82.754 L 196.027 82.765 L 196.061 82.784 L 196.091 82.809 L 196.116 82.839 L 196.135 82.873 L 196.146 82.911 L 196.150 82.950 L 196.150 89.050 L 196.146 89.089 L 196.135 89.127 L 196.116 89.161 L 196.091 89.191 L 196.061 89.216 L 196.027 89.235 L 195.989 89.246 L 195.950 89.250 L 190.250 89.250 L 190.211 89.246 L 190.173 89.235 L 190.139 89.216 L 190.109 89.191 L 190.084 89.161 L 190.065 89.127 L 190.054 89.089 L 190.050 89.050 L 190.130 89.050 L 190.139 89.096 L 190.165 89.135 L 190.204 89.161 L 190.250 89.170 L 195.950 89.170 L 195.996 89.161 L 196.035 89.135 L 196.061 89.096 L 196.070 89.050 L 196.070 82.950 L 196.061 82.904 L 196.035 82.865 L 195.996 82.839 L 195.950 82.830 L 190.250 82.830 L 190.204 82.839 L 190.165 82.865 L 190.139 82.904 L 190.130 82.950 L 190.130 89.050" fill="none" stroke="#000000" stroke-width="0.2"/>
  <path d="M 196.770 86.000 L 196.972 87.919 L 197.557 89.727 L 197.581 89.780 L 198.533 91.425 L 199.803 92.838 L 199.847 92.878 L 201.385 93.993 L 203.120 94.768 L 203.176 94.786 L 205.035 95.179 L 206.936 95.181 L 206.994 95.175 L 208.824 94.786 L 208.880 94.768 L 210.615 93.993 L 212.016 92.977 L 212.018 92.952 L 212.016 92.977 L 215.519 96.481 L 215.583 96.536 L 215.619 96.562 L 215.672 96.595 L 215.769 96.639 L 215.872 96.667 L 215.915 96.674 L 216.000 96.680 L 221.818 96.680 L 221.821 96.674 L 221.818 96.680 L 224.119 98.981 L 224.183 99.036 L 224.219 99.062 L 224.311 99.115 L 224.411 99.153 L 224.472 99.167 L 224.515 99.174 L 224.600 99.180 L 227.521 99.180 L 227.527 99.170 L 227.521 99.180 L 227.564 99.252 L 227.744 99.451 L 227.935 99.593 L 227.986 99.622 L 228.204 99.717 L 228.437 99.768 L 228.495 99.774 L 228.705 99.774 L 228.763 99.768 L 228.996 99.717 L 229.214 99.622 L 229.265 99.593 L 229.456 99.451 L 229.636 99.252 L 229.756 99.047 L 229.780 98.993 L 229.852 98.766 L 229.878 98.529 L 229.878 98.471 L 229.852 98.234 L 229.769 97.979 L 229.636 97.748 L 229.477 97.570 L 229.434 97.530 L 229.265 97.407 L 229.214 97.378 L 228.996 97.283 L 228.734 97.227 L 228.466 97.227 L 228.204 97.283 L 227.960 97.391 L 227.766 97.530 L 227.723 97.570 L 227.564 97.748 L 227.521 97.820 L 227.527 97.830 L 227.521 97.820 L 224.882 97.820 L 224.879 97.826 L 224.882 97.820 L 222.581 95.519 L 222.517 95.463 L 222.428 95.405 L 222.331 95.361 L 222.289 95.347 L 222.185 95.326 L 222.100 95.320 L 216.282 95.320 L 216.279 95.326 L 216.282 95.320 L 212.956 91.995 L 212.926 91.996 L 212.956 91.995 L 213.467 91.425 L 214.419 89.780 L 214.442 89.727 L 215.028 87.919 L 215.230 86.000 L 215.028 84.081 L 214.432 82.246 L 213.467 80.575 L 212.956 80.005 L 212.926 80.004 L 212.956 80.005 L 225.782 67.180 L 225.779 67.174 L 225.782 67.180 L 230.550 67.180 L 230.573 67.157 L 230.550 67.180 L 230.550 67.500 L 230.555 67.555 L 230.571 67.607 L 230.597 67.656 L 230.632 67.698 L 230.674 67.733 L 230.723 67.759 L 230.775 67.775 L 230.830 67.780 L 231.150 67.780 L 231.173 67.757 L 231.150 67.780 L 231.150 72.730 L 231.159 72.835 L 231.170 72.889 L 231.202 72.990 L 231.250 73.084 L 231.281 73.130 L 231.349 73.211 L 233.658 75.520 L 233.714 75.529 L 233.658 75.520 L 233.562 75.563 L 233.462 75.636 L 233.397 75.706 L 233.363 75.753 L 233.330 75.809 L 233.306 75.863 L 233.279 75.953 L 233.267 76.047 L 233.266 76.262 L 233.304 76.522 L 233.315 76.736 L 233.304 77.006 L 233.266 77.266 L 233.266 77.452 L 233.274 77.546 L 233.286 77.603 L 233.317 77.693 L 233.379 77.800 L 233.462 77.892 L 233.562 77.965 L 233.675 78.015 L 233.767 78.036 L 233.825 78.042 L 235.233 78.044 L 235.324 78.036 L 235.388 78.023 L 235.444 78.005 L 235.503 77.978 L 235.554 77.949 L 235.630 77.892 L 235.712 77.800 L 235.774 77.693 L 235.813 77.575 L 235.826 77.444 L 235.808 77.424 L 235.826 77.444 L 245.318 77.444 L 245.342 77.421 L 245.318 77.444 L 245.320 84.718 L 245.326 84.721 L 245.320 84.718 L 245.218 84.820 L 245.221 84.826 L 245.218 84.820 L 243.579 84.820 L 243.573 84.830 L 243.579 84.820 L 243.536 84.748 L 243.377 84.570 L 243.334 84.530 L 243.140 84.391 L 242.923 84.293 L 242.867 84.275 L 242.634 84.227 L 242.366 84.227 L 242.104 84.283 L 241.860 84.391 L 241.644 84.549 L 241.483 84.725 L 241.449 84.772 L 241.331 84.979 L 241.256 85.206 L 241.243 85.263 L 241.220 85.500 L 241.243 85.737 L 241.256 85.794 L 241.331 86.021 L 241.449 86.228 L 241.483 86.275 L 241.644 86.451 L 241.835 86.593 L 241.886 86.622 L 242.104 86.717 L 242.337 86.768 L 242.395 86.774 L 242.634 86.773 L 242.896 86.717 L 243.140 86.608 L 243.334 86.470 L 243.377 86.430 L 243.536 86.252 L 243.579 86.180 L 243.573 86.170 L 243.579 86.180 L 245.500 86.180 L 245.585 86.174 L 245.689 86.153 L 245.731 86.139 L 245.828 86.095 L 245.917 86.036 L 245.981 85.981 L 246.481 85.481 L 246.549 85.400 L 246.579 85.354 L 246.616 85.285 L 246.637 85.234 L 246.660 85.159 L 246.671 85.105 L 246.680 85.000 L 246.680 77.000 L 246.671 76.895 L 246.660 76.841 L 246.628 76.740 L 246.579 76.646 L 246.549 76.600 L 246.481 76.519 L 246.229 76.268 L 246.145 76.202 L 246.092 76.169 L 245.995 76.125 L 245.892 76.097 L 245.786 76.085 L 235.826 76.084 L 235.807 76.105 L 235.826 76.084 L 235.824 76.047 L 235.813 75.953 L 235.785 75.863 L 235.761 75.809 L 235.712 75.728 L 235.650 75.657 L 235.607 75.618 L 235.529 75.563 L 235.416 75.513 L 235.324 75.492 L 235.280 75.486 L 235.226 75.484 L 235.209 75.499 L 235.226 75.484 L 235.224 75.418 L 235.217 75.340 L 235.206 75.286 L 235.183 75.211 L 235.162 75.161 L 235.125 75.091 L 235.095 75.046 L 235.045 74.985 L 232.510 72.448 L 232.504 72.451 L 232.510 72.448 L 232.510 67.780 L 232.487 67.757 L 232.510 67.780 L 232.830 67.780 L 232.885 67.775 L 232.937 67.759 L 232.986 67.733 L 233.028 67.698 L 233.063 67.656 L 233.089 67.607 L 233.105 67.555 L 233.110 67.500 L 233.110 67.002 L 233.072 66.742 L 233.061 66.528 L 233.072 66.258 L 233.110 65.998 L 233.110 65.500 L 233.105 65.445 L 233.089 65.393 L 233.063 65.344 L 233.028 65.302 L 232.986 65.267 L 232.937 65.241 L 232.885 65.225 L 232.830 65.220 L 230.830 65.220 L 230.775 65.225 L 230.723 65.241 L 230.674 65.267 L 230.632 65.302 L 230.597 65.344 L 230.571 65.393 L 230.555 65.445 L 230.550 65.500 L 230.550 65.820 L 230.573 65.843 L 230.550 65.820 L 225.500 65.820 L 225.415 65.826 L 225.372 65.833 L 225.269 65.861 L 225.172 65.905 L 225.083 65.963 L 225.019 66.019 L 212.016 79.022 L 212.018 79.048 L 212.016 79.022 L 210.615 78.007 L 208.852 77.222 L 206.965 76.821 L 205.035 76.821 L 203.148 77.222 L 201.385 78.007 L 199.824 79.141 L 198.551 80.552 L 198.517 80.599 L 197.568 82.246 L 196.972 84.081 L 196.770 86.000 L 196.850 86.000 L 197.050 87.902 L 197.641 89.722 L 198.597 91.378 L 199.877 92.800 L 201.425 93.924 L 203.172 94.702 L 205.023 95.097 L 205.064 95.101 L 206.956 95.100 L 208.807 94.708 L 208.847 94.695 L 210.575 93.924 L 212.024 92.873 L 212.026 92.848 L 212.024 92.873 L 215.576 96.424 L 215.660 96.494 L 215.714 96.527 L 215.800 96.565 L 215.891 96.589 L 216.000 96.600 L 221.851 96.600 L 221.854 96.594 L 221.851 96.600 L 224.176 98.924 L 224.260 98.994 L 224.342 99.041 L 224.430 99.075 L 224.491 99.089 L 224.600 99.100 L 227.568 99.100 L 227.574 99.089 L 227.568 99.100 L 227.629 99.205 L 227.782 99.377 L 227.813 99.405 L 228.000 99.539 L 228.229 99.641 L 228.454 99.690 L 228.495 99.694 L 228.705 99.694 L 228.746 99.690 L 228.971 99.641 L 229.181 99.549 L 229.218 99.528 L 229.403 99.392 L 229.571 99.205 L 229.687 99.007 L 229.704 98.969 L 229.774 98.749 L 229.800 98.500 L 229.777 98.271 L 229.768 98.230 L 229.696 98.012 L 229.571 97.795 L 229.418 97.623 L 229.387 97.595 L 229.218 97.472 L 229.181 97.451 L 228.971 97.359 L 228.725 97.307 L 228.475 97.307 L 228.229 97.359 L 228.000 97.461 L 227.797 97.608 L 227.629 97.795 L 227.568 97.900 L 227.574 97.911 L 227.568 97.900 L 224.849 97.900 L 224.846 97.906 L 224.849 97.900 L 222.524 95.576 L 222.465 95.524 L 222.386 95.473 L 222.270 95.425 L 222.178 95.406 L 222.100 95.400 L 216.249 95.400 L 216.246 95.406 L 216.249 95.400 L 212.846 91.998 L 212.816 91.998 L 212.846 91.998 L 213.402 91.378 L 214.359 89.722 L 214.950 87.902 L 215.150 86.000 L 214.950 84.098 L 214.359 82.278 L 213.402 80.622 L 212.846 80.002 L 212.816 80.001 L 212.846 80.002 L 225.748 67.100 L 225.746 67.094 L 225.748 67.100 L 230.630 67.100 L 230.653 67.077 L 230.630 67.100 L 230.630 67.500 L 230.634 67.539 L 230.645 67.577 L 230.664 67.611 L 230.689 67.641 L 230.719 67.666 L 230.753 67.685 L 230.791 67.696 L 230.830 67.700 L 231.230 67.700 L 231.253 67.677 L 231.230 67.700 L 231.230 72.730 L 231.239 72.828 L 231.246 72.866 L 231.276 72.960 L 231.321 73.046 L 231.343 73.079 L 231.406 73.154 L 233.817 75.566 L 233.903 75.592 L 233.817 75.566 L 233.784 75.570 L 233.700 75.589 L 233.621 75.623 L 233.584 75.644 L 233.515 75.696 L 233.444 75.775 L 233.390 75.868 L 233.362 75.950 L 233.354 75.991 L 233.346 76.077 L 233.346 77.452 L 233.354 77.537 L 233.362 77.578 L 233.390 77.660 L 233.444 77.753 L 233.515 77.832 L 233.584 77.884 L 233.621 77.905 L 233.700 77.939 L 233.784 77.958 L 233.825 77.962 L 235.233 77.964 L 235.307 77.958 L 235.371 77.944 L 235.411 77.931 L 235.471 77.905 L 235.507 77.884 L 235.576 77.832 L 235.635 77.769 L 235.659 77.735 L 235.701 77.660 L 235.734 77.558 L 235.745 77.472 L 235.746 77.364 L 235.725 77.342 L 235.746 77.364 L 245.398 77.364 L 245.422 77.341 L 245.398 77.364 L 245.400 84.751 L 245.406 84.754 L 245.400 84.751 L 245.251 84.900 L 245.254 84.906 L 245.251 84.900 L 243.532 84.900 L 243.526 84.911 L 243.532 84.900 L 243.471 84.795 L 243.318 84.623 L 243.287 84.595 L 243.100 84.461 L 242.871 84.359 L 242.646 84.310 L 242.605 84.305 L 242.395 84.305 L 242.354 84.310 L 242.129 84.359 L 241.900 84.461 L 241.697 84.608 L 241.542 84.778 L 241.518 84.812 L 241.413 84.993 L 241.396 85.031 L 241.326 85.251 L 241.300 85.500 L 241.326 85.749 L 241.396 85.969 L 241.413 86.007 L 241.518 86.188 L 241.542 86.222 L 241.697 86.392 L 241.900 86.539 L 242.129 86.641 L 242.375 86.693 L 242.625 86.693 L 242.851 86.647 L 242.890 86.634 L 243.100 86.539 L 243.287 86.405 L 243.318 86.377 L 243.471 86.205 L 243.532 86.100 L 243.526 86.089 L 243.532 86.100 L 245.516 86.099 L 245.609 86.089 L 245.700 86.065 L 245.786 86.027 L 245.865 85.976 L 245.924 85.924 L 246.424 85.424 L 246.487 85.349 L 246.509 85.316 L 246.546 85.247 L 246.561 85.211 L 246.584 85.136 L 246.591 85.098 L 246.599 85.020 L 246.600 77.000 L 246.591 76.902 L 246.584 76.864 L 246.554 76.770 L 246.509 76.683 L 246.487 76.651 L 246.424 76.576 L 246.188 76.340 L 246.104 76.270 L 246.022 76.223 L 245.934 76.189 L 245.842 76.170 L 245.780 76.165 L 235.746 76.164 L 235.726 76.185 L 235.746 76.164 L 235.745 76.056 L 235.734 75.970 L 235.701 75.868 L 235.659 75.793 L 235.635 75.759 L 235.576 75.696 L 235.507 75.644 L 235.471 75.623 L 235.392 75.589 L 235.307 75.570 L 235.233 75.564 L 235.146 75.564 L 235.125 75.586 L 235.146 75.564 L 235.145 75.426 L 235.137 75.348 L 235.129 75.310 L 235.100 75.216 L 235.055 75.129 L 235.033 75.097 L 234.983 75.036 L 232.430 72.481 L 232.424 72.484 L 232.430 72.481 L 232.430 67.700 L 232.407 67.677 L 232.430 67.700 L 232.830 67.700 L 232.869 67.696 L 232.907 67.685 L 232.941 67.666 L 232.971 67.641 L 232.996 67.611 L 233.015 67.577 L 233.026 67.539 L 233.030 67.500 L 233.030 65.500 L 233.026 65.461 L 233.015 65.423 L 232.996 65.389 L 232.971 65.359 L 232.941 65.334 L 232.907 65.315 L 232.869 65.304 L 232.830 65.300 L 230.830 65.300 L 230.791 65.304 L 230.753 65.315 L 230.719 65.334 L 230.689 65.359 L 230.664 65.389 L 230.645 65.423 L 230.634 65.461 L 230.630 65.500 L 230.630 65.900 L 230.653 65.923 L 230.630 65.900 L 225.500 65.900 L 225.422 65.906 L 225.330 65.925 L 225.242 65.959 L 225.160 66.006 L 225.076 66.076 L 212.024 79.127 L 212.026 79.152 L 212.024 79.127 L 210.575 78.076 L 208.847 77.305 L 208.807 77.292 L 206.956 76.900 L 205.064 76.899 L 205.023 76.903 L 203.172 77.298 L 201.425 78.076 L 199.877 79.200 L 198.597 80.622 L 197.641 82.278 L 197.055 84.077 L 197.047 84.118 L 196.850 86.000 L 196.930 86.000 L 197.128 84.114 L 197.710 82.323 L 197.720 82.300 L 198.655 80.679 L 198.670 80.659 L 199.931 79.260 L 201.465 78.145 L 203.197 77.374 L 205.040 76.982 L 205.064 76.979 L 206.948 76.980 L 208.791 77.371 L 208.814 77.378 L 210.535 78.145 L 212.032 79.232 L 225.132 66.132 L 225.202 66.074 L 225.272 66.033 L 225.348 66.003 L 225.428 65.985 L 225.500 65.980 L 230.710 65.980 L 230.712 65.477 L 230.719 65.454 L 230.745 65.415 L 230.763 65.400 L 230.807 65.382 L 232.830 65.380 L 232.876 65.389 L 232.897 65.400 L 232.930 65.433 L 232.941 65.454 L 232.950 65.500 L 232.948 67.523 L 232.941 67.546 L 232.915 67.585 L 232.876 67.611 L 232.853 67.618 L 232.350 67.620 L 232.350 72.515 L 234.921 75.087 L 234.984 75.167 L 235.026 75.247 L 235.053 75.333 L 235.066 75.446 L 235.066 75.644 L 235.272 75.646 L 235.367 75.665 L 235.460 75.709 L 235.523 75.755 L 235.575 75.813 L 235.628 75.901 L 235.656 75.987 L 235.666 76.077 L 235.666 76.244 L 245.773 76.244 L 245.855 76.252 L 245.934 76.273 L 245.992 76.297 L 246.062 76.338 L 246.132 76.396 L 246.368 76.632 L 246.438 76.721 L 246.480 76.801 L 246.507 76.887 L 246.520 77.000 L 246.519 85.012 L 246.512 85.090 L 246.484 85.188 L 246.425 85.298 L 246.368 85.368 L 245.868 85.868 L 245.798 85.926 L 245.727 85.967 L 245.670 85.991 L 245.591 86.012 L 245.509 86.020 L 243.486 86.020 L 243.406 86.158 L 243.258 86.323 L 243.060 86.470 L 242.834 86.568 L 242.617 86.614 L 242.383 86.614 L 242.154 86.565 L 241.940 86.470 L 241.751 86.332 L 241.602 86.168 L 241.587 86.148 L 241.472 85.944 L 241.404 85.733 L 241.380 85.500 L 241.404 85.267 L 241.472 85.056 L 241.587 84.852 L 241.602 84.832 L 241.751 84.668 L 241.940 84.530 L 242.154 84.435 L 242.371 84.388 L 242.395 84.385 L 242.629 84.388 L 242.846 84.435 L 243.060 84.530 L 243.258 84.677 L 243.406 84.842 L 243.486 84.980 L 245.285 84.980 L 245.480 84.785 L 245.478 77.284 L 235.666 77.284 L 235.666 77.452 L 235.658 77.529 L 235.633 77.616 L 235.623 77.639 L 235.583 77.706 L 235.523 77.773 L 235.449 77.826 L 235.355 77.866 L 235.291 77.880 L 235.233 77.884 L 233.825 77.882 L 233.724 77.863 L 233.631 77.819 L 233.569 77.773 L 233.508 77.706 L 233.463 77.627 L 233.433 77.529 L 233.426 77.452 L 233.426 76.077 L 233.435 75.987 L 233.463 75.901 L 233.508 75.822 L 233.569 75.755 L 233.642 75.702 L 233.724 75.665 L 233.801 75.648 L 233.858 75.644 L 234.009 75.644 L 231.462 73.098 L 231.405 73.028 L 231.350 72.929 L 231.318 72.820 L 231.310 72.730 L 231.310 67.620 L 230.830 67.620 L 230.784 67.611 L 230.745 67.585 L 230.719 67.546 L 230.710 67.500 L 230.710 67.020 L 225.715 67.020 L 212.736 79.999 L 213.338 80.669 L 214.286 82.311 L 214.872 84.114 L 215.070 86.000 L 214.872 87.886 L 214.286 89.689 L 213.338 91.331 L 212.736 92.001 L 216.215 95.480 L 222.100 95.480 L 222.172 95.485 L 222.252 95.503 L 222.344 95.541 L 222.413 95.585 L 222.468 95.632 L 224.815 97.980 L 227.614 97.980 L 227.694 97.842 L 227.851 97.668 L 228.040 97.530 L 228.254 97.435 L 228.483 97.386 L 228.717 97.386 L 228.946 97.435 L 229.149 97.524 L 229.349 97.668 L 229.513 97.852 L 229.623 98.044 L 229.692 98.255 L 229.720 98.500 L 229.692 98.745 L 229.623 98.956 L 229.513 99.148 L 229.349 99.332 L 229.160 99.470 L 228.946 99.565 L 228.717 99.614 L 228.483 99.614 L 228.254 99.565 L 228.040 99.470 L 227.851 99.332 L 227.694 99.158 L 227.614 99.020 L 224.600 99.020 L 224.509 99.012 L 224.430 98.991 L 224.372 98.967 L 224.302 98.926 L 224.232 98.868 L 221.885 96.520 L 216.000 96.520 L 215.909 96.512 L 215.830 96.491 L 215.772 96.467 L 215.702 96.426 L 215.632 96.368 L 212.032 92.768 L 210.535 93.855 L 208.814 94.622 L 208.791 94.629 L 206.960 95.018 L 206.936 95.021 L 205.052 95.020 L 203.209 94.629 L 203.185 94.622 L 201.465 93.855 L 199.941 92.748 L 199.922 92.731 L 198.662 91.331 L 197.714 89.689 L 197.131 87.898 L 197.126 87.873 L 196.930 86.000" fill="none" stroke="#000000" stroke-width="0.2"/>
  <path d="M 215.770 89.050 L 215.770 82.950 L 215.775 82.895 L 215.791 82.843 L 215.817 82.794 L 215.852 82.752 L 215.894 82.717 L 215.943 82.691 L 215.995 82.675 L 216.050 82.670 L 221.750 82.670 L 221.805 82.675 L 221.857 82.691 L 221.906 82.717 L 221.948 82.752 L 221.983 82.794 L 222.009 82.843 L 222.025 82.895 L 222.030 82.950 L 222.030 85.320 L 222.008 85.342 L 222.030 85.320 L 222.122 85.321 L 222.228 85.333 L 222.289 85.347 L 222.389 85.385 L 222.481 85.438 L 222.517 85.463 L 222.581 85.519 L 223.420 86.358 L 223.469 86.476 L 223.420 86.358 L 223.420 77.000 L 223.429 76.895 L 223.440 76.841 L 223.472 76.740 L 223.520 76.646 L 223.551 76.600 L 223.601 76.540 L 223.855 76.283 L 223.919 76.228 L 224.008 76.169 L 224.105 76.125 L 224.147 76.111 L 224.251 76.090 L 224.336 76.084 L 225.847 76.084 L 225.852 76.094 L 225.847 76.084 L 225.890 76.012 L 226.048 75.834 L 226.092 75.794 L 226.286 75.656 L 226.530 75.547 L 226.792 75.491 L 227.030 75.490 L 227.088 75.496 L 227.321 75.547 L 227.540 75.642 L 227.590 75.672 L 227.782 75.813 L 227.961 76.012 L 228.095 76.243 L 228.156 76.425 L 228.156 77.103 L 228.095 77.285 L 227.961 77.516 L 227.803 77.695 L 227.759 77.734 L 227.566 77.873 L 227.321 77.981 L 227.088 78.032 L 227.030 78.039 L 226.821 78.039 L 226.763 78.032 L 226.530 77.981 L 226.312 77.886 L 226.261 77.857 L 226.092 77.734 L 226.048 77.695 L 225.890 77.516 L 225.847 77.444 L 225.852 77.434 L 225.847 77.444 L 224.780 77.445 L 224.757 77.422 L 224.780 77.445 L 224.780 87.718 L 224.774 87.721 L 224.780 87.718 L 225.318 88.257 L 225.315 88.267 L 225.318 88.257 L 225.466 88.227 L 225.705 88.225 L 225.763 88.232 L 225.967 88.275 L 226.023 88.293 L 226.240 88.391 L 226.456 88.549 L 226.636 88.748 L 226.769 88.979 L 226.852 89.234 L 226.878 89.471 L 226.878 89.529 L 226.852 89.766 L 226.780 89.993 L 226.756 90.047 L 226.636 90.252 L 226.477 90.430 L 226.434 90.470 L 226.280 90.581 L 226.271 90.577 L 226.280 90.581 L 226.280 94.718 L 226.274 94.721 L 226.280 94.718 L 226.882 95.320 L 226.879 95.326 L 226.882 95.320 L 231.600 95.320 L 231.685 95.326 L 231.728 95.333 L 231.831 95.361 L 231.928 95.405 L 232.017 95.463 L 232.081 95.519 L 235.581 99.019 L 235.649 99.100 L 235.679 99.146 L 235.728 99.240 L 235.760 99.341 L 235.771 99.394 L 235.780 99.500 L 235.780 102.320 L 235.757 102.343 L 235.780 102.320 L 242.820 102.320 L 242.843 102.343 L 242.820 102.320 L 242.820 96.680 L 242.843 96.657 L 242.820 96.680 L 238.000 96.680 L 237.915 96.674 L 237.811 96.653 L 237.769 96.639 L 237.672 96.595 L 237.583 96.536 L 237.519 96.481 L 235.519 94.481 L 235.451 94.400 L 235.420 94.354 L 235.372 94.260 L 235.340 94.159 L 235.329 94.105 L 235.320 94.000 L 235.320 86.120 L 235.326 86.118 L 235.320 86.120 L 234.827 85.627 L 234.830 85.617 L 234.827 85.627 L 234.679 85.657 L 234.412 85.657 L 234.150 85.601 L 233.932 85.506 L 233.881 85.477 L 233.689 85.335 L 233.510 85.136 L 233.376 84.905 L 233.316 84.723 L 233.316 84.045 L 233.376 83.863 L 233.494 83.656 L 233.529 83.609 L 233.668 83.454 L 233.712 83.414 L 233.906 83.276 L 234.123 83.177 L 234.178 83.159 L 234.412 83.111 L 234.650 83.110 L 234.708 83.116 L 234.941 83.167 L 235.160 83.262 L 235.210 83.292 L 235.379 83.414 L 235.423 83.454 L 235.581 83.632 L 235.715 83.863 L 235.798 84.118 L 235.824 84.355 L 235.824 84.413 L 235.802 84.621 L 235.792 84.669 L 235.784 84.672 L 235.792 84.669 L 236.499 85.378 L 236.549 85.439 L 236.579 85.484 L 236.616 85.553 L 236.637 85.604 L 236.660 85.679 L 236.671 85.733 L 236.680 85.838 L 236.680 93.718 L 236.674 93.721 L 236.680 93.718 L 238.282 95.320 L 238.279 95.326 L 238.282 95.320 L 243.527 95.321 L 243.633 95.333 L 243.734 95.362 L 243.785 95.383 L 243.878 95.435 L 243.960 95.501 L 243.999 95.540 L 244.049 95.600 L 244.079 95.646 L 244.116 95.715 L 244.137 95.766 L 244.167 95.867 L 244.180 96.000 L 244.180 103.000 L 244.167 103.133 L 244.137 103.234 L 244.116 103.285 L 244.079 103.354 L 244.049 103.400 L 243.999 103.460 L 243.960 103.499 L 243.900 103.549 L 243.854 103.579 L 243.785 103.616 L 243.734 103.637 L 243.659 103.660 L 243.605 103.671 L 243.500 103.680 L 235.100 103.680 L 234.967 103.667 L 234.866 103.637 L 234.815 103.616 L 234.746 103.579 L 234.700 103.549 L 234.640 103.499 L 234.601 103.460 L 234.551 103.400 L 234.520 103.354 L 234.483 103.285 L 234.463 103.234 L 234.433 103.133 L 234.421 103.027 L 234.420 99.782 L 234.426 99.779 L 234.420 99.782 L 231.318 96.680 L 231.321 96.674 L 231.318 96.680 L 226.600 96.680 L 226.515 96.674 L 226.472 96.667 L 226.369 96.639 L 226.272 96.595 L 226.219 96.562 L 226.135 96.496 L 225.119 95.481 L 225.051 95.400 L 225.020 95.354 L 224.983 95.285 L 224.962 95.234 L 224.940 95.159 L 224.929 95.105 L 224.920 95.000 L 224.920 90.581 L 224.929 90.577 L 224.920 90.581 L 224.744 90.451 L 224.583 90.275 L 224.549 90.228 L 224.431 90.021 L 224.348 89.766 L 224.322 89.529 L 224.322 89.471 L 224.343 89.263 L 224.353 89.215 L 224.361 89.212 L 224.353 89.215 L 222.030 86.892 L 221.981 86.772 L 222.030 86.892 L 222.030 89.050 L 222.025 89.105 L 222.009 89.157 L 221.983 89.206 L 221.948 89.248 L 221.906 89.283 L 221.857 89.309 L 221.805 89.325 L 221.750 89.330 L 216.050 89.330 L 215.995 89.325 L 215.943 89.309 L 215.894 89.283 L 215.852 89.248 L 215.817 89.206 L 215.791 89.157 L 215.775 89.105 L 215.770 89.050 L 215.850 89.050 L 215.850 82.950 L 215.854 82.911 L 215.865 82.873 L 215.884 82.839 L 215.909 82.809 L 215.939 82.784 L 215.973 82.765 L 216.011 82.754 L 216.050 82.750 L 221.750 82.750 L 221.789 82.754 L 221.827 82.765 L 221.861 82.784 L 221.891 82.809 L 221.916 82.839 L 221.935 82.873 L 221.946 82.911 L 221.950 82.950 L 221.950 85.400 L 221.927 85.423 L 221.950 85.400 L 222.116 85.401 L 222.209 85.410 L 222.270 85.425 L 222.358 85.459 L 222.465 85.524 L 222.524 85.576 L 223.500 86.551 L 223.549 86.670 L 223.500 86.551 L 223.500 77.000 L 223.509 76.902 L 223.516 76.864 L 223.546 76.770 L 223.591 76.683 L 223.613 76.651 L 223.663 76.590 L 223.912 76.340 L 223.971 76.288 L 224.050 76.237 L 224.166 76.189 L 224.258 76.170 L 224.336 76.164 L 225.894 76.164 L 225.900 76.175 L 225.894 76.164 L 225.954 76.059 L 226.108 75.887 L 226.139 75.859 L 226.308 75.736 L 226.344 75.715 L 226.555 75.623 L 226.800 75.571 L 227.030 75.570 L 227.072 75.574 L 227.296 75.623 L 227.507 75.715 L 227.543 75.736 L 227.729 75.872 L 227.883 76.042 L 227.908 76.076 L 228.022 76.276 L 228.094 76.494 L 228.103 76.535 L 228.126 76.764 L 228.099 77.014 L 228.029 77.233 L 228.012 77.271 L 227.896 77.469 L 227.743 77.641 L 227.712 77.669 L 227.526 77.803 L 227.296 77.905 L 227.072 77.954 L 227.030 77.959 L 226.821 77.959 L 226.780 77.954 L 226.555 77.905 L 226.344 77.813 L 226.308 77.792 L 226.139 77.669 L 226.108 77.641 L 225.954 77.469 L 225.894 77.364 L 225.900 77.353 L 225.894 77.364 L 224.700 77.365 L 224.677 77.342 L 224.700 77.365 L 224.700 87.751 L 224.694 87.754 L 224.700 87.751 L 225.293 88.344 L 225.289 88.355 L 225.293 88.344 L 225.454 88.310 L 225.495 88.305 L 225.725 88.307 L 225.951 88.353 L 225.990 88.366 L 226.200 88.461 L 226.403 88.608 L 226.571 88.795 L 226.696 89.012 L 226.774 89.250 L 226.799 89.479 L 226.799 89.521 L 226.774 89.749 L 226.704 89.969 L 226.687 90.007 L 226.571 90.205 L 226.418 90.377 L 226.387 90.405 L 226.218 90.528 L 226.200 90.539 L 226.191 90.535 L 226.200 90.539 L 226.200 94.751 L 226.194 94.754 L 226.200 94.751 L 226.848 95.400 L 226.846 95.406 L 226.848 95.400 L 231.600 95.400 L 231.709 95.410 L 231.800 95.435 L 231.886 95.473 L 231.965 95.524 L 232.024 95.576 L 235.524 99.076 L 235.587 99.151 L 235.609 99.183 L 235.654 99.270 L 235.684 99.364 L 235.691 99.402 L 235.700 99.500 L 235.700 102.400 L 235.677 102.423 L 235.700 102.400 L 242.900 102.400 L 242.923 102.423 L 242.900 102.400 L 242.900 96.600 L 242.923 96.577 L 242.900 96.600 L 238.000 96.600 L 237.922 96.594 L 237.830 96.575 L 237.714 96.527 L 237.635 96.476 L 237.576 96.424 L 235.576 94.424 L 235.513 94.349 L 235.491 94.316 L 235.446 94.230 L 235.416 94.136 L 235.409 94.098 L 235.400 94.000 L 235.400 86.087 L 235.406 86.084 L 235.400 86.087 L 234.853 85.540 L 234.856 85.529 L 234.853 85.540 L 234.692 85.574 L 234.650 85.579 L 234.420 85.577 L 234.195 85.531 L 234.155 85.518 L 233.946 85.423 L 233.743 85.276 L 233.575 85.089 L 233.449 84.872 L 233.372 84.634 L 233.346 84.384 L 233.369 84.155 L 233.377 84.114 L 233.449 83.896 L 233.563 83.696 L 233.588 83.662 L 233.743 83.492 L 233.946 83.345 L 234.175 83.243 L 234.400 83.194 L 234.441 83.190 L 234.671 83.191 L 234.896 83.237 L 234.936 83.250 L 235.127 83.335 L 235.163 83.356 L 235.332 83.479 L 235.363 83.507 L 235.516 83.679 L 235.642 83.896 L 235.719 84.135 L 235.745 84.363 L 235.745 84.405 L 235.719 84.634 L 235.702 84.692 L 235.690 84.695 L 235.702 84.692 L 236.437 85.429 L 236.487 85.489 L 236.509 85.522 L 236.546 85.591 L 236.561 85.627 L 236.584 85.702 L 236.591 85.741 L 236.600 85.838 L 236.600 93.751 L 236.594 93.754 L 236.600 93.751 L 238.248 95.400 L 238.246 95.406 L 238.248 95.400 L 243.520 95.401 L 243.617 95.412 L 243.711 95.439 L 243.747 95.454 L 243.833 95.501 L 243.910 95.563 L 243.937 95.590 L 243.987 95.651 L 244.009 95.683 L 244.046 95.753 L 244.061 95.789 L 244.088 95.883 L 244.100 96.000 L 244.100 103.000 L 244.088 103.117 L 244.061 103.211 L 244.046 103.247 L 243.999 103.333 L 243.937 103.410 L 243.910 103.437 L 243.849 103.487 L 243.816 103.509 L 243.747 103.546 L 243.711 103.561 L 243.617 103.588 L 243.500 103.600 L 235.100 103.600 L 234.983 103.588 L 234.889 103.561 L 234.853 103.546 L 234.783 103.509 L 234.751 103.487 L 234.676 103.424 L 234.613 103.349 L 234.591 103.316 L 234.539 103.211 L 234.512 103.117 L 234.501 103.020 L 234.500 99.748 L 234.506 99.746 L 234.500 99.748 L 231.351 96.600 L 231.354 96.594 L 231.351 96.600 L 226.600 96.600 L 226.491 96.589 L 226.430 96.575 L 226.342 96.541 L 226.260 96.494 L 226.187 96.435 L 225.176 95.424 L 225.113 95.349 L 225.091 95.316 L 225.054 95.247 L 225.039 95.211 L 225.016 95.136 L 225.009 95.098 L 225.000 95.000 L 225.000 90.539 L 225.009 90.535 L 225.000 90.539 L 224.982 90.528 L 224.813 90.405 L 224.782 90.377 L 224.629 90.205 L 224.504 89.988 L 224.426 89.749 L 224.401 89.521 L 224.401 89.479 L 224.426 89.250 L 224.444 89.192 L 224.456 89.189 L 224.444 89.192 L 221.950 86.698 L 221.901 86.579 L 221.950 86.698 L 221.950 89.050 L 221.946 89.089 L 221.935 89.127 L 221.916 89.161 L 221.891 89.191 L 221.861 89.216 L 221.827 89.235 L 221.789 89.246 L 221.750 89.250 L 216.050 89.250 L 216.011 89.246 L 215.973 89.235 L 215.939 89.216 L 215.909 89.191 L 215.884 89.161 L 215.865 89.127 L 215.854 89.089 L 215.850 89.050 L 215.930 89.050 L 215.939 89.096 L 215.965 89.135 L 216.004 89.161 L 216.050 89.170 L 221.750 89.170 L 221.796 89.161 L 221.835 89.135 L 221.850 89.117 L 221.868 89.073 L 221.870 89.050 L 221.870 86.520 L 221.885 86.520 L 224.535 89.171 L 224.504 89.267 L 224.481 89.513 L 224.504 89.733 L 224.577 89.956 L 224.694 90.158 L 224.842 90.323 L 225.029 90.463 L 225.080 90.488 L 225.080 95.000 L 225.088 95.090 L 225.116 95.188 L 225.175 95.298 L 225.232 95.368 L 226.239 96.374 L 226.302 96.426 L 226.372 96.467 L 226.430 96.491 L 226.509 96.512 L 226.600 96.520 L 231.385 96.520 L 234.580 99.715 L 234.581 103.012 L 234.590 103.101 L 234.625 103.210 L 234.675 103.298 L 234.732 103.368 L 234.802 103.425 L 234.912 103.484 L 234.999 103.510 L 235.100 103.520 L 243.500 103.520 L 243.601 103.510 L 243.699 103.480 L 243.798 103.425 L 243.876 103.359 L 243.938 103.279 L 243.984 103.188 L 244.010 103.101 L 244.020 103.000 L 244.020 96.000 L 244.010 95.899 L 243.975 95.790 L 243.925 95.702 L 243.876 95.641 L 243.789 95.568 L 243.688 95.516 L 243.601 95.490 L 243.512 95.481 L 238.215 95.480 L 236.520 93.785 L 236.520 85.838 L 236.512 85.749 L 236.475 85.629 L 236.425 85.540 L 236.376 85.479 L 235.610 84.713 L 235.641 84.617 L 235.665 84.372 L 235.641 84.151 L 235.569 83.929 L 235.452 83.726 L 235.304 83.561 L 235.285 83.544 L 235.094 83.408 L 234.892 83.319 L 234.675 83.272 L 234.441 83.270 L 234.200 83.319 L 233.986 83.414 L 233.796 83.552 L 233.633 83.736 L 233.522 83.929 L 233.453 84.139 L 233.426 84.384 L 233.450 84.617 L 233.522 84.840 L 233.640 85.042 L 233.796 85.216 L 233.986 85.354 L 234.212 85.452 L 234.441 85.499 L 234.663 85.498 L 234.879 85.453 L 235.480 86.054 L 235.480 94.000 L 235.488 94.090 L 235.520 94.199 L 235.575 94.298 L 235.632 94.368 L 237.632 96.368 L 237.687 96.415 L 237.756 96.459 L 237.848 96.497 L 237.928 96.515 L 238.000 96.520 L 242.980 96.520 L 242.980 102.480 L 235.620 102.480 L 235.620 99.500 L 235.607 99.387 L 235.580 99.301 L 235.538 99.221 L 235.468 99.132 L 231.968 95.632 L 231.913 95.585 L 231.844 95.541 L 231.770 95.509 L 231.691 95.488 L 231.600 95.480 L 226.815 95.480 L 226.120 94.785 L 226.120 90.488 L 226.171 90.463 L 226.349 90.332 L 226.513 90.148 L 226.623 89.956 L 226.692 89.745 L 226.697 89.720 L 226.719 89.487 L 226.696 89.267 L 226.623 89.044 L 226.506 88.842 L 226.349 88.668 L 226.160 88.530 L 225.934 88.432 L 225.705 88.385 L 225.483 88.386 L 225.267 88.431 L 224.620 87.785 L 224.620 77.286 L 225.940 77.284 L 226.019 77.422 L 226.167 77.588 L 226.355 77.727 L 226.580 77.829 L 226.809 77.878 L 227.043 77.878 L 227.260 77.832 L 227.486 77.734 L 227.675 77.596 L 227.839 77.412 L 227.949 77.220 L 228.018 77.009 L 228.046 76.764 L 228.018 76.519 L 227.949 76.309 L 227.839 76.116 L 227.675 75.932 L 227.486 75.794 L 227.260 75.696 L 227.043 75.650 L 226.809 75.650 L 226.580 75.699 L 226.355 75.801 L 226.167 75.941 L 226.019 76.106 L 225.940 76.244 L 224.336 76.244 L 224.264 76.249 L 224.184 76.267 L 224.092 76.305 L 224.023 76.349 L 223.968 76.396 L 223.724 76.641 L 223.662 76.721 L 223.616 76.812 L 223.588 76.910 L 223.580 77.000 L 223.580 86.745 L 222.468 85.632 L 222.413 85.585 L 222.327 85.533 L 222.270 85.509 L 222.191 85.488 L 222.100 85.480 L 221.870 85.480 L 221.870 82.950 L 221.868 82.927 L 221.850 82.883 L 221.817 82.850 L 221.796 82.839 L 221.750 82.830 L 216.027 82.832 L 215.983 82.850 L 215.965 82.865 L 215.939 82.904 L 215.930 82.950 L 215.930 89.050" fill="none" stroke="#000000" stroke-width="0.2"/>
  <path d="M 225.646 84.384 L 225.674 84.650 L 225.746 84.877 L 225.770 84.931 L 225.890 85.136 L 226.048 85.315 L 226.092 85.354 L 226.246 85.465 L 226.254 85.461 L 226.246 85.465 L 226.247 86.453 L 226.255 86.531 L 226.265 86.585 L 226.288 86.660 L 226.309 86.711 L 226.346 86.780 L 226.377 86.825 L 226.445 86.906 L 228.820 89.282 L 228.826 89.279 L 228.820 89.282 L 228.820 92.244 L 228.848 92.277 L 228.820 92.244 L 228.763 92.232 L 228.705 92.225 L 228.466 92.227 L 228.233 92.275 L 228.177 92.293 L 227.960 92.392 L 227.766 92.530 L 227.723 92.570 L 227.564 92.748 L 227.431 92.979 L 227.348 93.234 L 227.320 93.500 L 227.348 93.766 L 227.431 94.021 L 227.564 94.252 L 227.723 94.430 L 227.766 94.470 L 227.960 94.608 L 228.177 94.707 L 228.233 94.725 L 228.437 94.768 L 228.495 94.774 L 228.734 94.773 L 228.996 94.717 L 229.240 94.608 L 229.434 94.470 L 229.477 94.430 L 229.617 94.275 L 229.651 94.228 L 229.769 94.021 L 229.852 93.766 L 229.880 93.500 L 229.857 93.263 L 229.847 93.215 L 229.839 93.212 L 229.847 93.215 L 229.981 93.081 L 230.049 93.000 L 230.079 92.954 L 230.128 92.860 L 230.160 92.759 L 230.171 92.705 L 230.180 92.600 L 230.180 89.000 L 230.171 88.895 L 230.160 88.841 L 230.137 88.766 L 230.116 88.715 L 230.079 88.646 L 230.049 88.600 L 229.981 88.519 L 227.606 86.144 L 227.599 86.146 L 227.606 86.144 L 227.606 85.465 L 227.597 85.461 L 227.606 85.465 L 227.782 85.335 L 227.961 85.136 L 228.095 84.905 L 228.156 84.723 L 228.156 84.045 L 228.095 83.863 L 227.961 83.632 L 227.782 83.433 L 227.566 83.276 L 227.321 83.167 L 227.059 83.111 L 226.792 83.111 L 226.530 83.167 L 226.286 83.276 L 226.092 83.414 L 226.048 83.454 L 225.890 83.632 L 225.756 83.863 L 225.674 84.118 L 225.646 84.384 L 225.726 84.384 L 225.749 84.613 L 225.757 84.654 L 225.829 84.872 L 225.955 85.089 L 226.123 85.276 L 226.308 85.412 L 226.326 85.423 L 226.334 85.419 L 226.326 85.423 L 226.326 86.426 L 226.334 86.523 L 226.342 86.562 L 226.365 86.637 L 226.380 86.673 L 226.417 86.742 L 226.438 86.775 L 226.501 86.850 L 228.900 89.249 L 228.906 89.246 L 228.900 89.249 L 228.900 92.343 L 228.929 92.379 L 228.900 92.343 L 228.746 92.310 L 228.705 92.305 L 228.475 92.307 L 228.229 92.359 L 228.000 92.461 L 227.797 92.608 L 227.629 92.795 L 227.504 93.012 L 227.432 93.230 L 227.423 93.271 L 227.400 93.500 L 227.426 93.749 L 227.504 93.988 L 227.618 94.188 L 227.642 94.222 L 227.782 94.377 L 227.813 94.405 L 228.000 94.539 L 228.229 94.641 L 228.475 94.693 L 228.725 94.693 L 228.971 94.641 L 229.200 94.539 L 229.403 94.392 L 229.571 94.205 L 229.696 93.988 L 229.768 93.770 L 229.777 93.729 L 229.800 93.500 L 229.774 93.250 L 229.756 93.192 L 229.748 93.190 L 229.756 93.192 L 229.924 93.024 L 229.987 92.949 L 230.009 92.916 L 230.046 92.847 L 230.061 92.811 L 230.084 92.736 L 230.091 92.698 L 230.099 92.620 L 230.100 89.000 L 230.091 88.902 L 230.084 88.864 L 230.054 88.770 L 230.009 88.683 L 229.987 88.651 L 229.924 88.576 L 227.526 86.177 L 227.520 86.180 L 227.526 86.177 L 227.526 85.423 L 227.517 85.419 L 227.526 85.423 L 227.543 85.412 L 227.729 85.276 L 227.896 85.089 L 228.022 84.872 L 228.094 84.654 L 228.103 84.613 L 228.126 84.384 L 228.099 84.135 L 228.022 83.896 L 227.896 83.679 L 227.729 83.492 L 227.526 83.345 L 227.296 83.243 L 227.072 83.194 L 227.030 83.190 L 226.800 83.191 L 226.575 83.237 L 226.535 83.250 L 226.344 83.335 L 226.308 83.356 L 226.123 83.492 L 225.968 83.662 L 225.943 83.696 L 225.839 83.877 L 225.822 83.915 L 225.752 84.135 L 225.726 84.384 L 225.806 84.384 L 225.833 84.629 L 225.902 84.840 L 226.020 85.042 L 226.176 85.216 L 226.355 85.347 L 226.406 85.373 L 226.406 86.426 L 226.414 86.515 L 226.445 86.625 L 226.500 86.724 L 226.558 86.793 L 228.980 89.215 L 228.980 92.385 L 228.933 92.431 L 228.717 92.386 L 228.483 92.386 L 228.254 92.435 L 228.040 92.530 L 227.851 92.668 L 227.694 92.842 L 227.577 93.044 L 227.502 93.280 L 227.480 93.500 L 227.504 93.733 L 227.577 93.956 L 227.687 94.148 L 227.842 94.323 L 227.860 94.340 L 228.040 94.470 L 228.254 94.565 L 228.483 94.614 L 228.717 94.614 L 228.946 94.565 L 229.160 94.470 L 229.349 94.332 L 229.506 94.158 L 229.623 93.956 L 229.692 93.745 L 229.720 93.500 L 229.696 93.267 L 229.665 93.171 L 229.868 92.968 L 229.938 92.879 L 229.984 92.788 L 230.012 92.690 L 230.019 92.612 L 230.020 89.000 L 230.007 88.887 L 229.980 88.801 L 229.938 88.721 L 229.868 88.632 L 227.446 86.210 L 227.446 85.373 L 227.496 85.347 L 227.675 85.216 L 227.839 85.032 L 227.953 84.828 L 228.021 84.617 L 228.045 84.397 L 228.021 84.151 L 227.949 83.929 L 227.832 83.726 L 227.684 83.561 L 227.486 83.414 L 227.260 83.316 L 227.043 83.270 L 226.821 83.270 L 226.796 83.272 L 226.568 83.323 L 226.366 83.414 L 226.186 83.544 L 226.020 83.726 L 225.902 83.929 L 225.833 84.139 L 225.806 84.384" fill="none" stroke="#000000" stroke-width="0.2"/>
  <path d="M 228.236 84.723 L 228.236 84.045 L 228.296 83.863 L 228.414 83.656 L 228.449 83.609 L 228.609 83.433 L 228.786 83.303 L 228.794 83.307 L 228.786 83.303 L 228.786 80.634 L 228.791 80.550 L 228.813 80.445 L 228.851 80.346 L 228.903 80.253 L 228.929 80.217 L 228.985 80.153 L 229.119 80.019 L 229.200 79.951 L 229.246 79.920 L 229.315 79.884 L 229.366 79.862 L 229.441 79.840 L 229.495 79.829 L 229.600 79.820 L 231.318 79.820 L 231.326 79.813 L 231.349 79.836 L 231.326 79.813 L 231.326 77.845 L 231.334 77.841 L 231.326 77.845 L 231.149 77.715 L 230.989 77.539 L 230.954 77.492 L 230.836 77.285 L 230.776 77.103 L 230.776 76.425 L 230.836 76.243 L 230.954 76.036 L 230.989 75.989 L 231.128 75.834 L 231.172 75.794 L 231.366 75.656 L 231.610 75.547 L 231.872 75.491 L 232.139 75.491 L 232.401 75.547 L 232.619 75.642 L 232.670 75.672 L 232.862 75.813 L 233.023 75.989 L 233.057 76.036 L 233.162 76.217 L 233.187 76.275 L 233.224 76.530 L 233.235 76.791 L 233.218 77.056 L 233.185 77.257 L 233.162 77.311 L 233.057 77.492 L 233.023 77.539 L 232.862 77.715 L 232.686 77.845 L 232.677 77.841 L 232.686 77.845 L 232.685 79.820 L 232.662 79.843 L 232.685 79.820 L 241.421 79.820 L 241.427 79.830 L 241.421 79.820 L 241.464 79.748 L 241.623 79.570 L 241.666 79.530 L 241.860 79.392 L 242.077 79.293 L 242.133 79.275 L 242.366 79.227 L 242.605 79.225 L 242.663 79.232 L 242.867 79.275 L 242.923 79.293 L 243.140 79.392 L 243.356 79.549 L 243.517 79.725 L 243.551 79.772 L 243.669 79.979 L 243.744 80.206 L 243.757 80.263 L 243.780 80.500 L 243.752 80.766 L 243.669 81.021 L 243.536 81.252 L 243.356 81.451 L 243.140 81.608 L 242.896 81.717 L 242.663 81.768 L 242.605 81.774 L 242.395 81.774 L 242.337 81.768 L 242.104 81.717 L 241.886 81.622 L 241.835 81.593 L 241.644 81.451 L 241.464 81.252 L 241.421 81.180 L 241.427 81.170 L 241.421 81.180 L 239.180 81.180 L 239.157 81.157 L 239.180 81.180 L 239.180 90.408 L 239.174 90.411 L 239.180 90.408 L 239.718 90.947 L 239.715 90.957 L 239.718 90.947 L 239.866 90.917 L 240.105 90.915 L 240.163 90.922 L 240.367 90.965 L 240.423 90.983 L 240.640 91.082 L 240.856 91.239 L 241.036 91.438 L 241.169 91.669 L 241.252 91.924 L 241.278 92.161 L 241.278 92.219 L 241.257 92.427 L 241.244 92.484 L 241.169 92.711 L 241.036 92.942 L 240.877 93.120 L 240.834 93.160 L 240.640 93.298 L 240.396 93.407 L 240.163 93.458 L 240.105 93.464 L 239.866 93.463 L 239.633 93.415 L 239.577 93.397 L 239.360 93.298 L 239.166 93.160 L 239.123 93.120 L 238.964 92.942 L 238.844 92.737 L 238.820 92.683 L 238.756 92.484 L 238.743 92.427 L 238.720 92.190 L 238.743 91.953 L 238.753 91.905 L 238.761 91.902 L 238.753 91.905 L 238.001 91.150 L 237.951 91.090 L 237.920 91.044 L 237.883 90.975 L 237.862 90.924 L 237.840 90.849 L 237.829 90.795 L 237.820 90.690 L 237.820 81.180 L 237.843 81.157 L 237.820 81.180 L 230.146 81.180 L 230.122 81.157 L 230.146 81.180 L 230.146 83.303 L 230.137 83.307 L 230.146 83.303 L 230.322 83.433 L 230.483 83.609 L 230.517 83.656 L 230.635 83.863 L 230.696 84.045 L 230.696 84.723 L 230.635 84.905 L 230.501 85.136 L 230.322 85.335 L 230.130 85.477 L 230.079 85.506 L 229.889 85.591 L 229.833 85.609 L 229.599 85.657 L 229.332 85.657 L 229.070 85.601 L 228.852 85.506 L 228.801 85.477 L 228.609 85.335 L 228.449 85.159 L 228.414 85.112 L 228.296 84.905 L 228.236 84.723 L 228.267 84.363 L 228.292 84.135 L 228.369 83.896 L 228.495 83.679 L 228.648 83.507 L 228.679 83.479 L 228.848 83.356 L 228.866 83.345 L 228.874 83.349 L 228.866 83.345 L 228.866 80.634 L 228.876 80.525 L 228.900 80.434 L 228.939 80.348 L 228.990 80.269 L 229.041 80.210 L 229.176 80.076 L 229.251 80.013 L 229.284 79.991 L 229.353 79.954 L 229.389 79.939 L 229.464 79.916 L 229.502 79.909 L 229.600 79.900 L 231.351 79.900 L 231.354 79.906 L 231.351 79.900 L 231.406 79.846 L 231.412 79.848 L 231.406 79.846 L 231.406 77.803 L 231.414 77.799 L 231.406 77.803 L 231.388 77.792 L 231.219 77.669 L 231.188 77.641 L 231.035 77.469 L 230.909 77.252 L 230.837 77.034 L 230.829 76.993 L 230.806 76.764 L 230.829 76.535 L 230.837 76.494 L 230.902 76.296 L 230.919 76.257 L 231.035 76.059 L 231.203 75.872 L 231.388 75.736 L 231.424 75.715 L 231.635 75.623 L 231.880 75.571 L 232.131 75.571 L 232.356 75.617 L 232.396 75.630 L 232.587 75.715 L 232.623 75.736 L 232.809 75.872 L 232.976 76.059 L 233.102 76.276 L 233.179 76.515 L 233.206 76.764 L 233.183 76.993 L 233.174 77.034 L 233.102 77.252 L 232.976 77.469 L 232.823 77.641 L 232.792 77.669 L 232.623 77.792 L 232.606 77.803 L 232.597 77.799 L 232.606 77.803 L 232.605 79.900 L 232.582 79.923 L 232.605 79.900 L 241.468 79.900 L 241.474 79.911 L 241.468 79.900 L 241.529 79.795 L 241.682 79.623 L 241.713 79.595 L 241.882 79.472 L 241.919 79.451 L 242.129 79.359 L 242.354 79.310 L 242.395 79.305 L 242.625 79.307 L 242.871 79.359 L 243.100 79.461 L 243.287 79.595 L 243.318 79.623 L 243.471 79.795 L 243.587 79.993 L 243.604 80.031 L 243.674 80.250 L 243.699 80.479 L 243.699 80.521 L 243.674 80.749 L 243.596 80.988 L 243.482 81.188 L 243.458 81.222 L 243.303 81.392 L 243.118 81.528 L 243.081 81.549 L 242.871 81.641 L 242.625 81.693 L 242.395 81.695 L 242.354 81.690 L 242.149 81.647 L 242.110 81.634 L 241.900 81.539 L 241.697 81.392 L 241.529 81.205 L 241.468 81.100 L 241.474 81.089 L 241.468 81.100 L 239.100 81.100 L 239.077 81.077 L 239.100 81.100 L 239.100 90.441 L 239.094 90.444 L 239.100 90.441 L 239.693 91.034 L 239.690 91.045 L 239.693 91.034 L 239.875 90.997 L 240.125 90.997 L 240.371 91.049 L 240.600 91.151 L 240.803 91.298 L 240.958 91.468 L 240.982 91.502 L 241.096 91.702 L 241.174 91.941 L 241.200 92.190 L 241.174 92.439 L 241.096 92.678 L 240.971 92.895 L 240.803 93.082 L 240.600 93.229 L 240.371 93.331 L 240.146 93.380 L 240.105 93.385 L 239.875 93.383 L 239.649 93.337 L 239.610 93.324 L 239.400 93.229 L 239.213 93.095 L 239.182 93.067 L 239.029 92.895 L 238.913 92.697 L 238.896 92.659 L 238.832 92.460 L 238.823 92.419 L 238.800 92.190 L 238.826 91.941 L 238.844 91.882 L 238.853 91.879 L 238.844 91.882 L 238.063 91.100 L 238.013 91.039 L 237.991 91.006 L 237.946 90.920 L 237.916 90.826 L 237.909 90.788 L 237.900 90.690 L 237.900 81.100 L 237.923 81.077 L 237.900 81.100 L 230.066 81.100 L 230.042 81.077 L 230.066 81.100 L 230.066 83.345 L 230.057 83.349 L 230.066 83.345 L 230.083 83.356 L 230.269 83.492 L 230.436 83.679 L 230.562 83.896 L 230.634 84.114 L 230.643 84.155 L 230.666 84.384 L 230.643 84.613 L 230.634 84.654 L 230.569 84.853 L 230.552 84.891 L 230.436 85.089 L 230.269 85.276 L 230.066 85.423 L 229.856 85.518 L 229.816 85.531 L 229.612 85.574 L 229.570 85.579 L 229.340 85.577 L 229.115 85.531 L 229.075 85.518 L 228.884 85.433 L 228.848 85.412 L 228.663 85.276 L 228.495 85.089 L 228.369 84.872 L 228.297 84.654 L 228.289 84.613 L 228.266 84.384 L 228.346 84.384 L 228.370 84.617 L 228.442 84.840 L 228.560 85.042 L 228.707 85.207 L 228.726 85.224 L 228.917 85.360 L 229.120 85.449 L 229.336 85.496 L 229.361 85.499 L 229.595 85.496 L 229.812 85.449 L 230.026 85.354 L 230.224 85.207 L 230.372 85.042 L 230.483 84.851 L 230.561 84.617 L 230.586 84.384 L 230.561 84.151 L 230.493 83.940 L 230.372 83.726 L 230.224 83.561 L 230.036 83.421 L 229.986 83.396 L 229.986 81.020 L 237.980 81.020 L 237.980 90.690 L 237.988 90.780 L 238.025 90.900 L 238.075 90.988 L 238.124 91.049 L 238.935 91.861 L 238.904 91.957 L 238.881 92.177 L 238.904 92.423 L 238.983 92.657 L 239.094 92.848 L 239.242 93.013 L 239.440 93.160 L 239.666 93.258 L 239.883 93.304 L 240.105 93.305 L 240.346 93.255 L 240.560 93.160 L 240.749 93.022 L 240.906 92.848 L 241.023 92.646 L 241.095 92.423 L 241.120 92.190 L 241.095 91.957 L 241.023 91.734 L 240.906 91.532 L 240.758 91.367 L 240.571 91.227 L 240.549 91.214 L 240.346 91.125 L 240.117 91.076 L 239.883 91.076 L 239.667 91.121 L 239.020 90.475 L 239.020 81.020 L 241.514 81.020 L 241.594 81.158 L 241.751 81.332 L 241.940 81.470 L 242.142 81.561 L 242.166 81.568 L 242.395 81.615 L 242.617 81.614 L 242.846 81.565 L 243.071 81.463 L 243.249 81.332 L 243.398 81.168 L 243.523 80.956 L 243.596 80.733 L 243.619 80.487 L 243.596 80.267 L 243.528 80.056 L 243.406 79.842 L 243.240 79.660 L 243.060 79.530 L 242.846 79.435 L 242.617 79.386 L 242.395 79.385 L 242.154 79.435 L 241.929 79.537 L 241.742 79.677 L 241.594 79.842 L 241.514 79.980 L 232.525 79.980 L 232.526 77.753 L 232.576 77.727 L 232.764 77.587 L 232.912 77.422 L 233.029 77.220 L 233.103 76.984 L 233.126 76.764 L 233.101 76.531 L 233.029 76.309 L 232.912 76.106 L 232.755 75.932 L 232.566 75.794 L 232.352 75.699 L 232.123 75.650 L 231.889 75.650 L 231.660 75.699 L 231.446 75.794 L 231.266 75.924 L 231.100 76.106 L 230.978 76.320 L 230.910 76.531 L 230.886 76.764 L 230.913 77.009 L 230.982 77.220 L 231.093 77.412 L 231.256 77.596 L 231.435 77.727 L 231.486 77.753 L 231.486 79.879 L 231.385 79.980 L 229.600 79.980 L 229.510 79.988 L 229.390 80.025 L 229.302 80.075 L 229.232 80.132 L 229.098 80.267 L 229.040 80.336 L 228.998 80.407 L 228.969 80.483 L 228.951 80.562 L 228.946 80.634 L 228.946 83.396 L 228.895 83.421 L 228.716 83.552 L 228.553 83.736 L 228.442 83.929 L 228.373 84.139 L 228.346 84.384" fill="none" stroke="#000000" stroke-width="0.2"/>
  <path d="M 230.776 84.723 L 230.776 84.045 L 230.836 83.863 L 230.970 83.632 L 231.128 83.454 L 231.172 83.414 L 231.341 83.292 L 231.392 83.262 L 231.610 83.167 L 231.872 83.111 L 232.139 83.111 L 232.373 83.159 L 232.429 83.177 L 232.619 83.262 L 232.670 83.292 L 232.862 83.433 L 233.023 83.609 L 233.057 83.656 L 233.175 83.863 L 233.236 84.045 L 233.236 84.723 L 233.175 84.905 L 233.041 85.136 L 232.862 85.335 L 232.686 85.465 L 232.677 85.461 L 232.686 85.465 L 232.686 88.004 L 232.679 88.006 L 232.686 88.004 L 232.938 88.257 L 232.935 88.267 L 232.938 88.257 L 233.086 88.227 L 233.325 88.225 L 233.383 88.232 L 233.587 88.275 L 233.643 88.293 L 233.860 88.391 L 234.054 88.530 L 234.097 88.570 L 234.256 88.748 L 234.389 88.979 L 234.472 89.234 L 234.498 89.471 L 234.498 89.529 L 234.472 89.766 L 234.400 89.993 L 234.376 90.047 L 234.256 90.252 L 234.097 90.430 L 234.054 90.470 L 233.900 90.581 L 233.891 90.577 L 233.900 90.581 L 233.900 93.939 L 233.894 93.942 L 233.900 93.939 L 233.911 93.949 L 238.989 99.028 L 238.990 99.064 L 238.989 99.028 L 239.144 98.859 L 239.360 98.701 L 239.604 98.593 L 239.866 98.537 L 240.134 98.537 L 240.396 98.593 L 240.640 98.701 L 240.834 98.840 L 240.877 98.880 L 241.036 99.058 L 241.156 99.263 L 241.180 99.317 L 241.244 99.516 L 241.257 99.573 L 241.280 99.810 L 241.257 100.047 L 241.244 100.104 L 241.169 100.331 L 241.036 100.562 L 240.856 100.761 L 240.640 100.918 L 240.396 101.027 L 240.134 101.083 L 239.866 101.083 L 239.633 101.035 L 239.577 101.017 L 239.360 100.918 L 239.166 100.780 L 239.123 100.740 L 238.964 100.562 L 238.921 100.490 L 238.926 100.481 L 238.921 100.490 L 238.788 100.489 L 238.725 100.484 L 238.621 100.463 L 238.579 100.449 L 238.482 100.405 L 238.393 100.346 L 238.329 100.291 L 233.142 95.104 L 233.144 95.101 L 233.142 95.104 L 233.087 95.097 L 232.986 95.067 L 232.935 95.046 L 232.842 94.995 L 232.739 94.911 L 232.671 94.830 L 232.640 94.784 L 232.603 94.715 L 232.582 94.664 L 232.560 94.589 L 232.549 94.535 L 232.540 94.430 L 232.540 90.581 L 232.549 90.577 L 232.540 90.581 L 232.364 90.451 L 232.203 90.275 L 232.169 90.228 L 232.051 90.021 L 231.968 89.766 L 231.942 89.529 L 231.942 89.471 L 231.963 89.263 L 231.973 89.215 L 231.981 89.212 L 231.973 89.215 L 231.506 88.746 L 231.457 88.685 L 231.426 88.640 L 231.389 88.571 L 231.368 88.520 L 231.345 88.445 L 231.335 88.391 L 231.326 88.286 L 231.326 85.465 L 231.334 85.461 L 231.326 85.465 L 231.149 85.335 L 230.970 85.136 L 230.836 84.905 L 230.776 84.723 L 230.807 84.363 L 230.832 84.135 L 230.909 83.896 L 231.035 83.679 L 231.203 83.492 L 231.406 83.345 L 231.635 83.243 L 231.880 83.191 L 232.131 83.191 L 232.376 83.243 L 232.606 83.345 L 232.792 83.479 L 232.823 83.507 L 232.963 83.662 L 232.988 83.696 L 233.102 83.896 L 233.174 84.114 L 233.183 84.155 L 233.206 84.384 L 233.183 84.613 L 233.174 84.654 L 233.102 84.872 L 232.976 85.089 L 232.823 85.261 L 232.792 85.289 L 232.623 85.412 L 232.606 85.423 L 232.597 85.419 L 232.606 85.423 L 232.606 88.037 L 232.600 88.040 L 232.606 88.037 L 232.913 88.344 L 232.910 88.355 L 232.913 88.344 L 233.095 88.307 L 233.345 88.307 L 233.591 88.359 L 233.801 88.451 L 233.838 88.472 L 234.023 88.608 L 234.191 88.795 L 234.316 89.012 L 234.394 89.250 L 234.419 89.479 L 234.419 89.521 L 234.394 89.749 L 234.316 89.988 L 234.191 90.205 L 234.038 90.377 L 234.007 90.405 L 233.838 90.528 L 233.820 90.539 L 233.811 90.535 L 233.820 90.539 L 233.820 93.976 L 233.814 93.978 L 233.820 93.976 L 233.854 94.006 L 239.001 99.152 L 239.002 99.191 L 239.001 99.152 L 239.029 99.105 L 239.182 98.933 L 239.213 98.905 L 239.382 98.782 L 239.419 98.761 L 239.629 98.669 L 239.875 98.617 L 240.125 98.617 L 240.371 98.669 L 240.600 98.771 L 240.803 98.918 L 240.971 99.105 L 241.096 99.322 L 241.174 99.561 L 241.199 99.789 L 241.199 99.831 L 241.177 100.039 L 241.168 100.080 L 241.096 100.298 L 240.971 100.515 L 240.818 100.687 L 240.787 100.715 L 240.600 100.849 L 240.390 100.944 L 240.351 100.957 L 240.125 101.003 L 239.875 101.003 L 239.629 100.951 L 239.419 100.859 L 239.382 100.838 L 239.213 100.715 L 239.182 100.687 L 239.029 100.515 L 238.968 100.410 L 238.974 100.400 L 238.968 100.410 L 238.810 100.410 L 238.701 100.399 L 238.610 100.375 L 238.524 100.337 L 238.470 100.304 L 238.386 100.234 L 233.178 95.027 L 233.180 95.024 L 233.178 95.027 L 233.103 95.018 L 233.009 94.991 L 232.973 94.976 L 232.903 94.939 L 232.871 94.917 L 232.796 94.854 L 232.733 94.779 L 232.711 94.746 L 232.674 94.677 L 232.659 94.641 L 232.636 94.566 L 232.629 94.528 L 232.620 94.430 L 232.620 90.539 L 232.629 90.535 L 232.620 90.539 L 232.602 90.528 L 232.433 90.405 L 232.402 90.377 L 232.249 90.205 L 232.124 89.988 L 232.046 89.749 L 232.021 89.521 L 232.021 89.479 L 232.046 89.250 L 232.064 89.192 L 232.076 89.189 L 232.064 89.192 L 231.568 88.695 L 231.518 88.635 L 231.497 88.602 L 231.460 88.533 L 231.445 88.497 L 231.422 88.422 L 231.414 88.383 L 231.406 88.286 L 231.406 85.423 L 231.414 85.419 L 231.406 85.423 L 231.388 85.412 L 231.203 85.276 L 231.048 85.106 L 231.023 85.072 L 230.909 84.872 L 230.837 84.654 L 230.829 84.613 L 230.806 84.384 L 230.886 84.384 L 230.913 84.629 L 230.982 84.840 L 231.100 85.042 L 231.256 85.216 L 231.435 85.347 L 231.486 85.373 L 231.486 88.286 L 231.494 88.375 L 231.521 88.474 L 231.567 88.564 L 231.638 88.653 L 232.155 89.171 L 232.124 89.267 L 232.101 89.513 L 232.124 89.733 L 232.197 89.956 L 232.314 90.158 L 232.462 90.323 L 232.649 90.463 L 232.700 90.488 L 232.700 94.430 L 232.713 94.543 L 232.736 94.618 L 232.782 94.709 L 232.852 94.798 L 232.941 94.868 L 233.032 94.914 L 233.107 94.937 L 233.214 94.950 L 238.442 100.178 L 238.512 100.236 L 238.582 100.277 L 238.640 100.301 L 238.719 100.322 L 238.810 100.330 L 239.014 100.330 L 239.094 100.468 L 239.242 100.633 L 239.429 100.773 L 239.654 100.875 L 239.883 100.924 L 240.117 100.924 L 240.358 100.871 L 240.560 100.780 L 240.740 100.650 L 240.906 100.468 L 241.023 100.266 L 241.095 100.043 L 241.120 99.810 L 241.097 99.590 L 241.028 99.366 L 241.017 99.343 L 240.906 99.152 L 240.749 98.978 L 240.560 98.840 L 240.346 98.745 L 240.117 98.696 L 239.871 98.698 L 239.654 98.745 L 239.429 98.847 L 239.242 98.987 L 239.094 99.152 L 239.018 99.283 L 233.798 94.062 L 233.740 94.013 L 233.740 90.488 L 233.791 90.463 L 233.969 90.332 L 234.133 90.148 L 234.243 89.956 L 234.312 89.745 L 234.317 89.720 L 234.339 89.487 L 234.316 89.267 L 234.243 89.044 L 234.126 88.842 L 233.960 88.660 L 233.780 88.530 L 233.554 88.432 L 233.325 88.385 L 233.103 88.386 L 232.887 88.431 L 232.526 88.070 L 232.526 85.373 L 232.576 85.347 L 232.764 85.207 L 232.912 85.042 L 233.029 84.840 L 233.101 84.617 L 233.125 84.397 L 233.125 84.372 L 233.098 84.139 L 233.029 83.929 L 232.912 83.726 L 232.755 83.552 L 232.576 83.421 L 232.363 83.323 L 232.340 83.316 L 232.123 83.270 L 231.889 83.270 L 231.660 83.319 L 231.446 83.414 L 231.256 83.552 L 231.107 83.716 L 230.988 83.917 L 230.978 83.940 L 230.910 84.151 L 230.886 84.384" fill="none" stroke="#000000" stroke-width="0.2"/>
  <path d="M 226.200 71.500 L 226.228 71.766 L 226.311 72.021 L 226.444 72.252 L 226.624 72.451 L 226.840 72.608 L 227.057 72.707 L 227.113 72.725 L 227.317 72.768 L 227.375 72.774 L 227.614 72.773 L 227.762 72.743 L 227.765 72.733 L 227.762 72.743 L 228.820 73.802 L 228.826 73.799 L 228.820 73.802 L 228.820 75.659 L 228.829 75.664 L 228.820 75.659 L 228.801 75.672 L 228.609 75.813 L 228.430 76.012 L 228.296 76.243 L 228.236 76.425 L 228.236 77.103 L 228.296 77.285 L 228.414 77.492 L 228.449 77.539 L 228.588 77.695 L 228.632 77.734 L 228.826 77.873 L 229.043 77.971 L 229.098 77.989 L 229.332 78.037 L 229.599 78.037 L 229.861 77.981 L 230.106 77.873 L 230.299 77.734 L 230.343 77.695 L 230.501 77.516 L 230.635 77.285 L 230.696 77.103 L 230.696 76.425 L 230.635 76.243 L 230.501 76.012 L 230.322 75.813 L 230.180 75.708 L 230.171 75.712 L 230.180 75.708 L 230.180 73.520 L 230.171 73.415 L 230.160 73.361 L 230.128 73.260 L 230.079 73.166 L 230.049 73.120 L 229.981 73.039 L 228.727 71.785 L 228.718 71.788 L 228.727 71.785 L 228.737 71.737 L 228.758 71.529 L 228.758 71.471 L 228.732 71.234 L 228.649 70.979 L 228.531 70.772 L 228.497 70.725 L 228.336 70.549 L 228.145 70.407 L 228.094 70.378 L 227.903 70.293 L 227.847 70.275 L 227.614 70.227 L 227.375 70.225 L 227.317 70.232 L 227.084 70.283 L 226.840 70.391 L 226.624 70.549 L 226.444 70.748 L 226.311 70.979 L 226.236 71.206 L 226.223 71.263 L 226.200 71.500 L 226.280 71.500 L 226.306 71.749 L 226.376 71.969 L 226.393 72.007 L 226.498 72.188 L 226.522 72.222 L 226.677 72.392 L 226.862 72.528 L 226.899 72.549 L 227.109 72.641 L 227.334 72.690 L 227.375 72.695 L 227.605 72.693 L 227.787 72.656 L 227.790 72.645 L 227.787 72.656 L 228.900 73.769 L 228.906 73.766 L 228.900 73.769 L 228.900 75.708 L 228.909 75.713 L 228.900 75.708 L 228.866 75.725 L 228.663 75.872 L 228.508 76.042 L 228.483 76.076 L 228.369 76.276 L 228.297 76.494 L 228.289 76.535 L 228.267 76.743 L 228.267 76.785 L 228.292 77.014 L 228.369 77.252 L 228.495 77.469 L 228.648 77.641 L 228.679 77.669 L 228.848 77.792 L 228.884 77.813 L 229.095 77.905 L 229.340 77.957 L 229.591 77.957 L 229.836 77.905 L 230.066 77.803 L 230.252 77.669 L 230.283 77.641 L 230.436 77.469 L 230.552 77.271 L 230.569 77.233 L 230.634 77.034 L 230.643 76.993 L 230.666 76.764 L 230.643 76.535 L 230.634 76.494 L 230.562 76.276 L 230.448 76.076 L 230.423 76.042 L 230.269 75.872 L 230.100 75.748 L 230.091 75.753 L 230.100 75.748 L 230.100 73.520 L 230.091 73.422 L 230.084 73.384 L 230.054 73.290 L 230.009 73.203 L 229.987 73.171 L 229.924 73.096 L 228.636 71.808 L 228.627 71.811 L 228.636 71.808 L 228.657 71.729 L 228.679 71.521 L 228.679 71.479 L 228.654 71.251 L 228.576 71.012 L 228.462 70.812 L 228.438 70.778 L 228.283 70.608 L 228.098 70.472 L 228.061 70.451 L 227.851 70.359 L 227.626 70.310 L 227.585 70.305 L 227.375 70.305 L 227.334 70.310 L 227.109 70.359 L 226.880 70.461 L 226.677 70.608 L 226.509 70.795 L 226.384 71.012 L 226.312 71.230 L 226.303 71.271 L 226.280 71.500 L 226.360 71.500 L 226.384 71.733 L 226.452 71.944 L 226.463 71.967 L 226.582 72.168 L 226.731 72.332 L 226.909 72.463 L 227.134 72.565 L 227.375 72.615 L 227.597 72.614 L 227.813 72.569 L 228.980 73.735 L 228.980 75.760 L 228.895 75.801 L 228.716 75.932 L 228.553 76.116 L 228.442 76.309 L 228.373 76.519 L 228.346 76.752 L 228.346 76.777 L 228.370 76.997 L 228.442 77.220 L 228.560 77.422 L 228.707 77.588 L 228.895 77.727 L 228.917 77.740 L 229.120 77.829 L 229.349 77.878 L 229.583 77.878 L 229.812 77.829 L 230.026 77.734 L 230.205 77.604 L 230.224 77.588 L 230.379 77.412 L 230.489 77.220 L 230.563 76.984 L 230.586 76.764 L 230.563 76.544 L 230.489 76.309 L 230.372 76.106 L 230.224 75.941 L 230.020 75.791 L 230.020 73.520 L 230.012 73.430 L 229.980 73.321 L 229.925 73.222 L 229.868 73.152 L 228.545 71.829 L 228.576 71.733 L 228.599 71.487 L 228.576 71.267 L 228.503 71.044 L 228.386 70.842 L 228.238 70.677 L 228.220 70.660 L 228.029 70.524 L 227.814 70.432 L 227.597 70.386 L 227.375 70.385 L 227.134 70.435 L 226.920 70.530 L 226.722 70.677 L 226.574 70.842 L 226.463 71.033 L 226.384 71.267 L 226.360 71.500" fill="none" stroke="#000000" stroke-width="0.2"/>
  <path d="M 233.141 66.527 L 233.152 66.266 L 233.189 66.011 L 233.214 65.953 L 233.334 65.748 L 233.514 65.549 L 233.705 65.407 L 233.756 65.378 L 233.947 65.293 L 234.003 65.275 L 234.236 65.227 L 234.504 65.227 L 234.766 65.283 L 234.984 65.378 L 235.035 65.407 L 235.226 65.549 L 235.387 65.725 L 235.421 65.772 L 235.526 65.953 L 235.550 66.007 L 235.622 66.234 L 235.648 66.471 L 235.648 66.529 L 235.627 66.737 L 235.614 66.794 L 235.539 67.021 L 235.406 67.252 L 235.226 67.451 L 235.050 67.581 L 235.041 67.577 L 235.050 67.581 L 235.050 70.225 L 235.027 70.249 L 235.050 70.225 L 235.234 70.227 L 235.496 70.283 L 235.740 70.391 L 235.956 70.549 L 236.135 70.748 L 236.269 70.979 L 236.352 71.234 L 236.380 71.500 L 236.357 71.737 L 236.344 71.794 L 236.269 72.021 L 236.135 72.252 L 235.977 72.430 L 235.934 72.470 L 235.740 72.608 L 235.496 72.717 L 235.234 72.773 L 234.966 72.773 L 234.704 72.717 L 234.460 72.608 L 234.244 72.451 L 234.064 72.252 L 233.944 72.047 L 233.931 72.021 L 233.910 71.960 L 233.871 71.921 L 233.821 71.860 L 233.791 71.814 L 233.754 71.745 L 233.733 71.695 L 233.710 71.620 L 233.699 71.566 L 233.691 71.488 L 233.691 71.433 L 233.699 71.355 L 233.710 71.301 L 233.732 71.226 L 233.753 71.175 L 233.786 71.115 L 233.792 71.115 L 233.786 71.115 L 233.754 71.055 L 233.732 71.004 L 233.710 70.929 L 233.699 70.875 L 233.690 70.770 L 233.690 67.581 L 233.699 67.577 L 233.690 67.581 L 233.536 67.470 L 233.493 67.430 L 233.334 67.252 L 233.214 67.047 L 233.189 66.989 L 233.158 66.792 L 233.141 66.527 L 233.170 66.500 L 233.193 66.729 L 233.202 66.770 L 233.274 66.988 L 233.388 67.188 L 233.412 67.222 L 233.567 67.392 L 233.752 67.528 L 233.770 67.539 L 233.779 67.535 L 233.770 67.539 L 233.770 70.770 L 233.782 70.887 L 233.809 70.981 L 233.824 71.017 L 233.861 71.086 L 233.880 71.115 L 233.890 71.115 L 233.880 71.115 L 233.871 71.127 L 233.824 71.213 L 233.809 71.249 L 233.786 71.324 L 233.779 71.363 L 233.771 71.441 L 233.771 71.480 L 233.779 71.558 L 233.786 71.596 L 233.809 71.671 L 233.824 71.707 L 233.861 71.777 L 233.883 71.809 L 233.933 71.870 L 233.980 71.915 L 233.996 71.969 L 234.013 72.007 L 234.129 72.205 L 234.297 72.392 L 234.482 72.528 L 234.519 72.549 L 234.710 72.634 L 234.749 72.647 L 234.975 72.693 L 235.205 72.695 L 235.246 72.690 L 235.471 72.641 L 235.700 72.539 L 235.903 72.392 L 236.058 72.222 L 236.082 72.188 L 236.187 72.007 L 236.204 71.969 L 236.274 71.749 L 236.300 71.500 L 236.274 71.251 L 236.196 71.012 L 236.071 70.795 L 235.903 70.608 L 235.700 70.461 L 235.471 70.359 L 235.225 70.307 L 234.975 70.307 L 234.946 70.331 L 234.970 70.307 L 234.970 67.539 L 234.961 67.535 L 234.970 67.539 L 234.988 67.528 L 235.157 67.405 L 235.188 67.377 L 235.341 67.205 L 235.457 67.007 L 235.474 66.969 L 235.544 66.749 L 235.570 66.500 L 235.544 66.250 L 235.474 66.031 L 235.457 65.993 L 235.352 65.812 L 235.328 65.778 L 235.173 65.608 L 234.970 65.461 L 234.741 65.359 L 234.516 65.310 L 234.475 65.305 L 234.265 65.305 L 234.224 65.310 L 233.999 65.359 L 233.770 65.461 L 233.567 65.608 L 233.412 65.778 L 233.388 65.812 L 233.283 65.993 L 233.266 66.031 L 233.196 66.250 L 233.170 66.500 L 233.250 66.500 L 233.278 66.745 L 233.347 66.956 L 233.464 67.158 L 233.621 67.332 L 233.799 67.463 L 233.850 67.488 L 233.850 70.770 L 233.860 70.871 L 233.886 70.958 L 233.932 71.049 L 233.983 71.115 L 233.938 71.171 L 233.895 71.251 L 233.860 71.359 L 233.851 71.472 L 233.863 71.573 L 233.886 71.648 L 233.938 71.749 L 233.994 71.819 L 234.049 71.871 L 234.077 71.956 L 234.194 72.158 L 234.351 72.332 L 234.529 72.463 L 234.754 72.565 L 234.971 72.612 L 234.995 72.615 L 235.229 72.612 L 235.446 72.565 L 235.660 72.470 L 235.849 72.332 L 235.998 72.168 L 236.117 71.967 L 236.128 71.944 L 236.196 71.733 L 236.220 71.500 L 236.196 71.267 L 236.123 71.044 L 236.006 70.842 L 235.849 70.668 L 235.660 70.530 L 235.446 70.435 L 235.217 70.386 L 234.983 70.386 L 234.890 70.405 L 234.890 67.488 L 234.941 67.463 L 235.128 67.323 L 235.276 67.158 L 235.393 66.956 L 235.466 66.733 L 235.489 66.513 L 235.489 66.487 L 235.462 66.255 L 235.393 66.044 L 235.276 65.842 L 235.119 65.668 L 234.941 65.537 L 234.919 65.524 L 234.704 65.432 L 234.487 65.386 L 234.253 65.386 L 234.024 65.435 L 233.810 65.530 L 233.621 65.668 L 233.472 65.832 L 233.353 66.033 L 233.342 66.056 L 233.274 66.267 L 233.250 66.500" fill="none" stroke="#000000" stroke-width="0.2"/>
</svg>
