<?xml version="1.0" encoding="UTF-8"?>
<svg xmlns="http://www.w3.org/2000/svg" width="26.90mm" height="43.31mm" viewBox="220.60 61.50 26.90 43.31">
  <circle cx="225.600" cy="89.500" r="0.400" fill="none" stroke="#000000" stroke-width="0.1"/>
  <circle cx="228.600" cy="93.500" r="0.400" fill="none" stroke="#000000" stroke-width="0.1"/>
  <circle cx="233.220" cy="89.500" r="0.400" fill="none" stroke="#000000" stroke-width="0.1"/>
  <circle cx="234.546" cy="84.384" r="0.400" fill="none" stroke="#000000" stroke-width="0.1"/>
  <circle cx="232.006" cy="84.384" r="0.400" fill="none" stroke="#000000" stroke-width="0.1"/>
  <circle cx="229.466" cy="84.384" r="0.400" fill="none" stroke="#000000" stroke-width="0.1"/>
  <circle cx="226.926" cy="84.384" r="0.400" fill="none" stroke="#000000" stroke-width="0.1"/>
  <circle cx="226.926" cy="76.764" r="0.400" fill="none" stroke="#000000" stroke-width="0.1"/>
  <circle cx="229.466" cy="76.764" r="0.400" fill="none" stroke="#000000" stroke-width="0.1"/>
  <circle cx="227.480" cy="71.500" r="0.400" fill="none" stroke="#000000" stroke-width="0.1"/>
  <circle cx="232.006" cy="76.764" r="0.400" fill="none" stroke="#000000" stroke-width="0.1"/>
  <circle cx="234.546" cy="76.764" r="0.400" fill="none" stroke="#000000" stroke-width="0.1"/>
  <circle cx="235.100" cy="71.500" r="0.400" fill="none" stroke="#000000" stroke-width="0.1"/>
  <circle cx="242.500" cy="80.500" r="0.400" fill="none" stroke="#000000" stroke-width="0.1"/>
  <circle cx="242.500" cy="85.500" r="0.400" fill="none" stroke="#000000" stroke-width="0.1"/>
  <circle cx="240.000" cy="92.190" r="0.400" fill="none" stroke="#000000" stroke-width="0.1"/>
  <circle cx="240.000" cy="99.810" r="0.400" fill="none" stroke="#000000" stroke-width="0.1"/>
  <circle cx="228.600" cy="98.500" r="0.400" fill="none" stroke="#000000" stroke-width="0.1"/>
  <circle cx="231.830" cy="66.500" r="0.450" fill="none" stroke="#000000" stroke-width="0.1"/>
  <circle cx="234.370" cy="66.500" r="0.450" fill="none" stroke="#000000" stroke-width="0.1"/>
</svg>
