<?xml version="1.0" encoding="UTF-8"?>
<svg xmlns="http://www.w3.org/2000/svg" width="97.58mm" height="60.07mm" viewBox="166.46 51.28 97.58 60.07">
  <path d="M 171.462 93.078 L 171.479 93.759 L 171.529 94.433 L 171.613 95.096 L 171.729 95.749 L 171.877 96.391 L 172.055 97.020 L 172.263 97.637 L 172.500 98.239 L 172.765 98.827 L 173.058 99.399 L 173.377 99.954 L 173.721 100.492 L 174.090 101.012 L 174.496 101.528 L 174.913 102.009 L 175.352 102.469 L 175.798 102.894 L 176.294 103.324 L 176.795 103.717 L 177.315 104.086 L 177.853 104.430 L 178.409 104.749 L 178.981 105.042 L 179.568 105.307 L 180.171 105.544 L 180.787 105.752 L 181.416 105.930 L 182.058 106.077 L 182.711 106.193 L 183.375 106.277 L 184.048 106.328 L 184.720 106.345 L 213.851 106.345 L 216.651 106.345 L 245.783 106.345 L 246.454 106.328 L 247.128 106.277 L 247.811 106.190 L 248.464 106.073 L 249.086 105.930 L 249.734 105.746 L 250.350 105.537 L 250.952 105.299 L 251.539 105.033 L 252.111 104.740 L 252.649 104.430 L 253.187 104.086 L 253.707 103.717 L 254.208 103.324 L 254.704 102.894 L 255.150 102.469 L 255.590 102.009 L 256.007 101.528 L 256.401 101.028 L 256.770 100.508 L 257.126 99.954 L 257.435 99.416 L 257.729 98.844 L 257.995 98.257 L 258.239 97.637 L 258.441 97.039 L 258.625 96.391 L 258.769 95.769 L 258.886 95.116 L 258.971 94.453 L 259.023 93.780 L 259.041 93.079 L 259.029 92.548 L 258.996 92.004 L 258.865 90.941 L 258.649 89.895 L 258.597 89.715 L 258.352 88.877 L 257.977 87.891 L 257.603 87.103 L 257.527 86.943 L 257.005 86.035 L 256.414 85.173 L 255.757 84.360 L 255.036 83.600 L 254.257 82.897 L 253.420 82.256 L 252.529 81.681 L 251.588 81.175 L 250.600 80.743 L 250.081 80.553 L 249.881 80.488 L 249.932 80.076 L 249.970 79.708 L 250.004 79.326 L 250.029 78.957 L 250.049 78.574 L 250.062 78.205 L 250.068 77.828 L 250.041 76.723 L 249.958 75.629 L 249.822 74.551 L 249.633 73.490 L 249.388 72.428 L 249.103 71.425 L 248.764 70.423 L 248.379 69.445 L 247.948 68.490 L 247.473 67.561 L 246.954 66.658 L 246.384 65.768 L 245.783 64.924 L 245.143 64.110 L 244.465 63.329 L 243.765 62.595 L 243.018 61.881 L 242.236 61.204 L 241.423 60.564 L 240.563 59.952 L 239.688 59.392 L 238.803 58.883 L 237.857 58.399 L 236.902 57.968 L 235.942 57.589 L 234.941 57.250 L 233.919 56.959 L 232.876 56.718 L 231.816 56.528 L 230.738 56.391 L 229.624 56.306 L 228.535 56.278 L 227.060 56.329 L 225.601 56.479 L 224.830 56.611 L 224.164 56.726 L 222.756 57.067 L 222.112 57.270 L 221.380 57.501 L 220.039 58.023 L 218.740 58.633 L 217.485 59.328 L 216.278 60.104 L 215.126 60.959 L 214.030 61.892 L 212.996 62.898 L 212.028 63.976 L 211.130 65.124 L 210.306 66.338 L 209.784 67.234 L 209.634 67.126 L 209.113 66.780 L 208.594 66.465 L 208.035 66.156 L 207.480 65.877 L 206.914 65.621 L 206.354 65.395 L 205.756 65.180 L 205.180 64.999 L 204.581 64.836 L 203.961 64.695 L 203.365 64.584 L 202.734 64.493 L 202.129 64.430 L 201.489 64.390 L 200.879 64.376 L 200.066 64.397 L 199.282 64.457 L 198.529 64.552 L 197.749 64.692 L 197.003 64.865 L 196.289 65.067 L 195.553 65.316 L 194.870 65.585 L 194.186 65.894 L 193.503 66.244 L 192.873 66.606 L 192.247 67.007 L 191.641 67.437 L 191.043 67.907 L 190.497 68.380 L 189.961 68.891 L 189.437 69.441 L 188.952 70.001 L 188.506 70.569 L 188.075 71.174 L 187.663 71.816 L 187.292 72.463 L 186.960 73.111 L 186.650 73.795 L 186.373 74.496 L 186.124 75.232 L 185.916 75.965 L 185.749 76.693 L 185.612 77.453 L 185.514 78.225 L 185.452 79.029 L 185.434 79.854 L 185.018 79.835 L 184.727 79.830 L 184.048 79.846 L 183.355 79.899 L 182.691 79.984 L 182.038 80.101 L 181.397 80.250 L 180.787 80.423 L 180.170 80.631 L 179.550 80.875 L 178.963 81.141 L 178.391 81.435 L 177.853 81.744 L 177.315 82.089 L 176.779 82.469 L 176.279 82.863 L 175.798 83.280 L 175.352 83.706 L 174.900 84.180 L 174.483 84.661 L 174.090 85.163 L 173.721 85.683 L 173.376 86.221 L 173.284 86.382 L 173.067 86.759 L 172.774 87.331 L 172.508 87.918 L 172.263 88.538 L 172.132 88.928 L 172.055 89.155 L 171.882 89.765 L 171.733 90.406 L 171.616 91.059 L 171.529 91.743 L 171.479 92.416 L 171.462 93.078" fill="none" stroke="#000000" stroke-width="0.2"/>
</svg>
